<svg xmlns="http://www.w3.org/2000/svg" xmlns:xlink="http://www.w3.org/1999/xlink" viewBox="0 0 1079.52 1079.76"><defs><style>.cls-1{fill:#226a6e;}.cls-2{fill:#bdefd5;}.cls-3{fill:#083742;}.cls-4{fill:#6bc7b1;}.cls-5,.cls-6,.cls-7,.cls-8{opacity:0.8;}.cls-5{fill:url(#Degradado_sin_nombre_20);}.cls-6{fill:url(#Degradado_sin_nombre_29);}.cls-7{fill:url(#Degradado_sin_nombre_49);}.cls-8{fill:url(#Degradado_sin_nombre_28);}</style><linearGradient id="Degradado_sin_nombre_20" x1="377.84" y1="1216.41" x2="740.22" y2="588.75" gradientUnits="userSpaceOnUse"><stop offset="0" stop-color="#226a6e"/><stop offset="1" stop-color="#bdefd5"/></linearGradient><linearGradient id="Degradado_sin_nombre_29" x1="218.24" y1="566.88" x2="678.92" y2="-231.05" gradientUnits="userSpaceOnUse"><stop offset="0" stop-color="#bdefd5"/><stop offset="1" stop-color="#fff"/></linearGradient><linearGradient id="Degradado_sin_nombre_49" x1="270.42" y1="1216.76" x2="438.42" y2="925.77" gradientUnits="userSpaceOnUse"><stop offset="0" stop-color="#083742"/><stop offset="1" stop-color="#6bc7b1"/></linearGradient><linearGradient id="Degradado_sin_nombre_28" x1="372.23" y1="906.04" x2="882.73" y2="21.82" gradientUnits="userSpaceOnUse"><stop offset="0" stop-color="#6bc7b1"/><stop offset="1" stop-color="#fff"/></linearGradient></defs><g id="Capa_3" data-name="Capa 3"><path class="cls-1" d="M539.76,745.58S123.05,516.66,0,795.67V998.51c298.81-401,759.09,81.49,759.09,81.49h320.43V784.88S941.42,959.61,539.76,745.58Z" transform="translate(0 -0.24)"/><path class="cls-2" d="M539.76,290.39C1034.23,273.33,1079.52.48,1079.52.48H0V441.12S45.29,307.46,539.76,290.39Z" transform="translate(0 -0.24)"/><path class="cls-3" d="M33.14,1080h634S234.3,673.63,33.14,1080Z" transform="translate(0 -0.24)"/><path class="cls-4" d="M539.76,350.29C0,354,0,576.1,0,576.1V691.37c202.12-201.91,539.76-5.69,539.76-5.69,524.68,266,539.76-34.12,539.76-34.12V135.67S950.57,347.5,539.76,350.29Z" transform="translate(0 -0.24)"/></g><g id="Capa_5" data-name="Capa 5"><path class="cls-5" d="M539.76,745.34S123.05,516.42,0,795.43V998.27c298.81-401,759.09,81.49,759.09,81.49h320.43V784.64S941.42,959.37,539.76,745.34Z" transform="translate(0 -0.24)"/><path class="cls-6" d="M539.76,290.15C1034.23,273.09,1079.52.24,1079.52.24H0V440.88S45.29,307.22,539.76,290.15Z" transform="translate(0 -0.24)"/><path class="cls-7" d="M33.14,1079.76h634S234.3,673.39,33.14,1079.76Z" transform="translate(0 -0.24)"/><path class="cls-8" d="M539.76,350.05C0,353.71,0,575.86,0,575.86V691.13c202.12-201.91,539.76-5.68,539.76-5.68,524.68,266,539.76-34.13,539.76-34.13V135.43S950.57,347.26,539.76,350.05Z" transform="translate(0 -0.24)"/></g></svg>